solid ASCII
  facet normal -0.000000e+00 -4.472136e-01 -8.944272e-01
    outer loop
      vertex   6.495000e+02 0.000000e+00 5.500000e+00
      vertex   6.405000e+02 0.000000e+00 5.500000e+00
      vertex   6.500000e+02 1.000000e+00 5.000000e+00
    endloop
  endfacet
  facet normal -0.000000e+00 -4.472136e-01 -8.944272e-01
    outer loop
      vertex   6.500000e+02 1.000000e+00 5.000000e+00
      vertex   6.405000e+02 0.000000e+00 5.500000e+00
      vertex   6.400000e+02 1.000000e+00 5.000000e+00
    endloop
  endfacet
  facet normal 0.000000e+00 -4.472136e-01 8.944272e-01
    outer loop
      vertex   6.405000e+02 0.000000e+00 3.550000e+01
      vertex   6.495000e+02 0.000000e+00 3.550000e+01
      vertex   6.400000e+02 1.000000e+00 3.600000e+01
    endloop
  endfacet
  facet normal 0.000000e+00 -4.472136e-01 8.944272e-01
    outer loop
      vertex   6.400000e+02 1.000000e+00 3.600000e+01
      vertex   6.495000e+02 0.000000e+00 3.550000e+01
      vertex   6.500000e+02 1.000000e+00 3.600000e+01
    endloop
  endfacet
  facet normal 8.944272e-01 -4.472136e-01 0.000000e+00
    outer loop
      vertex   6.500000e+02 1.000000e+00 5.000000e+00
      vertex   6.500000e+02 1.000000e+00 3.600000e+01
      vertex   6.495000e+02 0.000000e+00 5.500000e+00
    endloop
  endfacet
  facet normal 8.944272e-01 -4.472136e-01 0.000000e+00
    outer loop
      vertex   6.495000e+02 0.000000e+00 5.500000e+00
      vertex   6.500000e+02 1.000000e+00 3.600000e+01
      vertex   6.495000e+02 0.000000e+00 3.550000e+01
    endloop
  endfacet
  facet normal -8.944272e-01 -4.472136e-01 0.000000e+00
    outer loop
      vertex   6.405000e+02 0.000000e+00 5.500000e+00
      vertex   6.405000e+02 0.000000e+00 3.550000e+01
      vertex   6.400000e+02 1.000000e+00 5.000000e+00
    endloop
  endfacet
  facet normal -8.944272e-01 -4.472136e-01 0.000000e+00
    outer loop
      vertex   6.400000e+02 1.000000e+00 5.000000e+00
      vertex   6.405000e+02 0.000000e+00 3.550000e+01
      vertex   6.400000e+02 1.000000e+00 3.600000e+01
    endloop
  endfacet
  facet normal -1.000000e+00 0.000000e+00 0.000000e+00
    outer loop
      vertex   6.400000e+02 1.000000e+00 5.000000e+00
      vertex   6.400000e+02 1.000000e+00 3.600000e+01
      vertex   6.400000e+02 2.000000e+00 5.000000e+00
    endloop
  endfacet
  facet normal -1.000000e+00 0.000000e+00 0.000000e+00
    outer loop
      vertex   6.400000e+02 2.000000e+00 5.000000e+00
      vertex   6.400000e+02 1.000000e+00 3.600000e+01
      vertex   6.400000e+02 2.000000e+00 3.600000e+01
    endloop
  endfacet
  facet normal 0.000000e+00 0.000000e+00 1.000000e+00
    outer loop
      vertex   6.400000e+02 1.000000e+00 3.600000e+01
      vertex   6.500000e+02 1.000000e+00 3.600000e+01
      vertex   6.400000e+02 2.000000e+00 3.600000e+01
    endloop
  endfacet
  facet normal -0.000000e+00 0.000000e+00 1.000000e+00
    outer loop
      vertex   6.400000e+02 2.000000e+00 3.600000e+01
      vertex   6.500000e+02 1.000000e+00 3.600000e+01
      vertex   6.500000e+02 2.000000e+00 3.600000e+01
    endloop
  endfacet
  facet normal -0.000000e+00 -1.000000e+00 -0.000000e+00
    outer loop
      vertex   6.495000e+02 0.000000e+00 3.550000e+01
      vertex   6.405000e+02 0.000000e+00 3.550000e+01
      vertex   6.495000e+02 0.000000e+00 5.500000e+00
    endloop
  endfacet
  facet normal 0.000000e+00 -1.000000e+00 0.000000e+00
    outer loop
      vertex   6.495000e+02 0.000000e+00 5.500000e+00
      vertex   6.405000e+02 0.000000e+00 3.550000e+01
      vertex   6.405000e+02 0.000000e+00 5.500000e+00
    endloop
  endfacet
  facet normal -1.000000e+00 0.000000e+00 0.000000e+00
    outer loop
      vertex   6.430000e+02 2.000000e+00 1.200000e+01
      vertex   6.430000e+02 2.000000e+00 2.900000e+01
      vertex   6.430000e+02 5.000000e+00 1.200000e+01
    endloop
  endfacet
  facet normal -1.000000e+00 0.000000e+00 0.000000e+00
    outer loop
      vertex   6.430000e+02 5.000000e+00 1.200000e+01
      vertex   6.430000e+02 2.000000e+00 2.900000e+01
      vertex   6.430000e+02 5.000000e+00 2.900000e+01
    endloop
  endfacet
  facet normal 0.000000e+00 0.000000e+00 1.000000e+00
    outer loop
      vertex   6.430000e+02 2.000000e+00 2.900000e+01
      vertex   6.470000e+02 2.000000e+00 2.900000e+01
      vertex   6.430000e+02 5.000000e+00 2.900000e+01
    endloop
  endfacet
  facet normal -0.000000e+00 0.000000e+00 1.000000e+00
    outer loop
      vertex   6.430000e+02 5.000000e+00 2.900000e+01
      vertex   6.470000e+02 2.000000e+00 2.900000e+01
      vertex   6.470000e+02 5.000000e+00 2.900000e+01
    endloop
  endfacet
  facet normal 0.000000e+00 0.000000e+00 -1.000000e+00
    outer loop
      vertex   6.470000e+02 2.000000e+00 1.200000e+01
      vertex   6.430000e+02 2.000000e+00 1.200000e+01
      vertex   6.470000e+02 5.000000e+00 1.200000e+01
    endloop
  endfacet
  facet normal -0.000000e+00 0.000000e+00 -1.000000e+00
    outer loop
      vertex   6.470000e+02 5.000000e+00 1.200000e+01
      vertex   6.430000e+02 2.000000e+00 1.200000e+01
      vertex   6.430000e+02 5.000000e+00 1.200000e+01
    endloop
  endfacet
  facet normal 1.000000e+00 -0.000000e+00 0.000000e+00
    outer loop
      vertex   6.470000e+02 2.000000e+00 2.900000e+01
      vertex   6.470000e+02 2.000000e+00 1.200000e+01
      vertex   6.470000e+02 5.000000e+00 2.900000e+01
    endloop
  endfacet
  facet normal 1.000000e+00 0.000000e+00 0.000000e+00
    outer loop
      vertex   6.470000e+02 5.000000e+00 2.900000e+01
      vertex   6.470000e+02 2.000000e+00 1.200000e+01
      vertex   6.470000e+02 5.000000e+00 1.200000e+01
    endloop
  endfacet
  facet normal 0.000000e+00 1.000000e+00 0.000000e+00
    outer loop
      vertex   6.470000e+02 5.000000e+00 2.900000e+01
      vertex   6.470000e+02 5.000000e+00 1.200000e+01
      vertex   6.430000e+02 5.000000e+00 2.900000e+01
    endloop
  endfacet
  facet normal 0.000000e+00 1.000000e+00 0.000000e+00
    outer loop
      vertex   6.430000e+02 5.000000e+00 2.900000e+01
      vertex   6.470000e+02 5.000000e+00 1.200000e+01
      vertex   6.430000e+02 5.000000e+00 1.200000e+01
    endloop
  endfacet
  facet normal 0.000000e+00 0.000000e+00 -1.000000e+00
    outer loop
      vertex   6.500000e+02 1.000000e+00 5.000000e+00
      vertex   6.400000e+02 1.000000e+00 5.000000e+00
      vertex   6.500000e+02 2.000000e+00 5.000000e+00
    endloop
  endfacet
  facet normal -0.000000e+00 0.000000e+00 -1.000000e+00
    outer loop
      vertex   6.500000e+02 2.000000e+00 5.000000e+00
      vertex   6.400000e+02 1.000000e+00 5.000000e+00
      vertex   6.400000e+02 2.000000e+00 5.000000e+00
    endloop
  endfacet
  facet normal 1.000000e+00 -0.000000e+00 0.000000e+00
    outer loop
      vertex   6.500000e+02 1.000000e+00 3.600000e+01
      vertex   6.500000e+02 1.000000e+00 5.000000e+00
      vertex   6.500000e+02 2.000000e+00 3.600000e+01
    endloop
  endfacet
  facet normal 1.000000e+00 0.000000e+00 0.000000e+00
    outer loop
      vertex   6.500000e+02 2.000000e+00 3.600000e+01
      vertex   6.500000e+02 1.000000e+00 5.000000e+00
      vertex   6.500000e+02 2.000000e+00 5.000000e+00
    endloop
  endfacet
  facet normal 0.000000e+00 1.000000e+00 -0.000000e+00
    outer loop
      vertex   6.430000e+02 2.000000e+00 1.200000e+01
      vertex   6.400000e+02 2.000000e+00 3.600000e+01
      vertex   6.430000e+02 2.000000e+00 2.900000e+01
    endloop
  endfacet
  facet normal 0.000000e+00 1.000000e+00 -0.000000e+00
    outer loop
      vertex   6.430000e+02 2.000000e+00 2.900000e+01
      vertex   6.400000e+02 2.000000e+00 3.600000e+01
      vertex   6.500000e+02 2.000000e+00 3.600000e+01
    endloop
  endfacet
  facet normal 0.000000e+00 1.000000e+00 0.000000e+00
    outer loop
      vertex   6.430000e+02 2.000000e+00 2.900000e+01
      vertex   6.500000e+02 2.000000e+00 3.600000e+01
      vertex   6.470000e+02 2.000000e+00 2.900000e+01
    endloop
  endfacet
  facet normal -0.000000e+00 1.000000e+00 0.000000e+00
    outer loop
      vertex   6.470000e+02 2.000000e+00 2.900000e+01
      vertex   6.500000e+02 2.000000e+00 3.600000e+01
      vertex   6.500000e+02 2.000000e+00 5.000000e+00
    endloop
  endfacet
  facet normal 0.000000e+00 1.000000e+00 0.000000e+00
    outer loop
      vertex   6.470000e+02 2.000000e+00 2.900000e+01
      vertex   6.500000e+02 2.000000e+00 5.000000e+00
      vertex   6.470000e+02 2.000000e+00 1.200000e+01
    endloop
  endfacet
  facet normal 0.000000e+00 1.000000e+00 0.000000e+00
    outer loop
      vertex   6.470000e+02 2.000000e+00 1.200000e+01
      vertex   6.500000e+02 2.000000e+00 5.000000e+00
      vertex   6.430000e+02 2.000000e+00 1.200000e+01
    endloop
  endfacet
  facet normal 0.000000e+00 1.000000e+00 0.000000e+00
    outer loop
      vertex   6.430000e+02 2.000000e+00 1.200000e+01
      vertex   6.500000e+02 2.000000e+00 5.000000e+00
      vertex   6.400000e+02 2.000000e+00 5.000000e+00
    endloop
  endfacet
  facet normal 0.000000e+00 1.000000e+00 0.000000e+00
    outer loop
      vertex   6.430000e+02 2.000000e+00 1.200000e+01
      vertex   6.400000e+02 2.000000e+00 5.000000e+00
      vertex   6.400000e+02 2.000000e+00 3.600000e+01
    endloop
  endfacet
endsolid
